<svg xmlns="http://www.w3.org/2000/svg" viewBox="0 0 800 580" font-family="-apple-system,Segoe UI,Roboto,Helvetica,Arial,sans-serif">
  <defs>
    <linearGradient id="bg" x1="0" y1="0" x2="0" y2="1">
      <stop offset="0" stop-color="#1b1d22"/>
      <stop offset="1" stop-color="#121317"/>
    </linearGradient>
  </defs>

  <!-- card -->
  <rect x="0" y="0" width="800" height="580" rx="14" fill="url(#bg)"/>
  <rect x="0.5" y="0.5" width="799" height="579" rx="14" fill="none" stroke="#2c2f36"/>

  <!-- title -->
  <text x="32" y="42" fill="#e7e9ee" font-size="20" font-weight="700">Relative Rotation Graph</text>
  <text x="32" y="64" fill="#8a909b" font-size="13">IBD industry groups · RS-Ratio vs RS-Momentum · weekly tails</text>
  <text x="768" y="44" text-anchor="end" fill="#8a909b" font-size="12">as of 2026-06-05</text>

  <!-- plot quadrants: center cross at (420, 300) -->
  <g>
    <rect x="80"  y="86"  width="340" height="214" fill="#2196f3" fill-opacity="0.10"/>  <!-- Improving  TL -->
    <rect x="420" y="86"  width="348" height="214" fill="#4caf50" fill-opacity="0.12"/>  <!-- Leading    TR -->
    <rect x="80"  y="300" width="340" height="200" fill="#f44336" fill-opacity="0.10"/>  <!-- Lagging    BL -->
    <rect x="420" y="300" width="348" height="200" fill="#ff9800" fill-opacity="0.10"/>  <!-- Weakening  BR -->
    <rect x="80" y="86" width="688" height="414" fill="none" stroke="#2c2f36"/>
    <line x1="420" y1="86" x2="420" y2="500" stroke="#5b616c" stroke-dasharray="5 5"/>
    <line x1="80" y1="300" x2="768" y2="300" stroke="#5b616c" stroke-dasharray="5 5"/>
  </g>

  <!-- quadrant captions -->
  <text x="760" y="108" text-anchor="end" fill="#4caf50" font-size="13" font-weight="700" letter-spacing="1">LEADING</text>
  <text x="88"  y="108" fill="#2196f3" font-size="13" font-weight="700" letter-spacing="1">IMPROVING</text>
  <text x="760" y="488" text-anchor="end" fill="#ff9800" font-size="13" font-weight="700" letter-spacing="1">WEAKENING</text>
  <text x="88"  y="488" fill="#f44336" font-size="13" font-weight="700" letter-spacing="1">LAGGING</text>

  <!-- axis labels -->
  <text x="424" y="525" text-anchor="middle" fill="#aab0bb" font-size="13">RS-Ratio  (relative strength) →</text>
  <text x="36" y="296" transform="rotate(-90 36 296)" text-anchor="middle" fill="#aab0bb" font-size="13">RS-Momentum →</text>

  <!-- ===== traces ===== -->
  <!-- Semiconductors: Improving -> Leading, accelerating up-right (rank #1) -->
  <g>
    <polyline points="452,322 505,262 556,210 606,168" fill="none" stroke="#4caf50" stroke-width="2" stroke-opacity="0.55"/>
    <circle cx="452" cy="322" r="2.5" fill="#4caf50" fill-opacity="0.35"/>
    <circle cx="505" cy="262" r="3.4" fill="#4caf50" fill-opacity="0.5"/>
    <circle cx="556" cy="210" r="4.2" fill="#4caf50" fill-opacity="0.7"/>
    <polygon points="-7,-4 7,0 -7,4" fill="#4caf50" transform="translate(581,189) rotate(-45.6)"/>
    <circle cx="606" cy="168" r="9" fill="#4caf50" stroke="#0c0d10" stroke-width="1.5"/>
    <text x="618" y="164" fill="#e7e9ee" font-size="12.5" font-weight="600">Semiconductors</text>
    <text x="618" y="179" fill="#8a909b" font-size="11">rank #1</text>
  </g>

  <!-- Software: settled in Leading, mild drift -->
  <g>
    <polyline points="470,250 512,228 548,212 586,206" fill="none" stroke="#4caf50" stroke-width="2" stroke-opacity="0.55"/>
    <circle cx="470" cy="250" r="2.5" fill="#4caf50" fill-opacity="0.35"/>
    <circle cx="512" cy="228" r="3.4" fill="#4caf50" fill-opacity="0.5"/>
    <circle cx="548" cy="212" r="4.2" fill="#4caf50" fill-opacity="0.7"/>
    <polygon points="-7,-4 7,0 -7,4" fill="#4caf50" transform="translate(567,209) rotate(-9.5)"/>
    <circle cx="586" cy="206" r="7.5" fill="#4caf50" stroke="#0c0d10" stroke-width="1.5"/>
    <text x="598" y="210" fill="#e7e9ee" font-size="12.5" font-weight="600">Software</text>
  </g>

  <!-- Aerospace/Defense: Lagging -> Improving, turning up -->
  <g>
    <polyline points="332,372 350,338 366,302 380,256" fill="none" stroke="#2196f3" stroke-width="2" stroke-opacity="0.55"/>
    <circle cx="332" cy="372" r="2.5" fill="#2196f3" fill-opacity="0.35"/>
    <circle cx="350" cy="338" r="3.4" fill="#2196f3" fill-opacity="0.5"/>
    <circle cx="366" cy="302" r="4.2" fill="#2196f3" fill-opacity="0.7"/>
    <polygon points="-7,-4 7,0 -7,4" fill="#2196f3" transform="translate(373,279) rotate(-73)"/>
    <circle cx="380" cy="256" r="7.5" fill="#2196f3" stroke="#0c0d10" stroke-width="1.5"/>
    <text x="300" y="246" fill="#e7e9ee" font-size="12.5" font-weight="600">Aerospace/Defense</text>
  </g>

  <!-- Oil &amp; Gas: Leading -> Weakening, rolling over -->
  <g>
    <polyline points="556,256 576,292 592,326 604,360" fill="none" stroke="#ff9800" stroke-width="2" stroke-opacity="0.55"/>
    <circle cx="556" cy="256" r="2.5" fill="#ff9800" fill-opacity="0.35"/>
    <circle cx="576" cy="292" r="3.4" fill="#ff9800" fill-opacity="0.5"/>
    <circle cx="592" cy="326" r="4.2" fill="#ff9800" fill-opacity="0.7"/>
    <polygon points="-7,-4 7,0 -7,4" fill="#ff9800" transform="translate(598,343) rotate(70.6)"/>
    <circle cx="604" cy="360" r="7.5" fill="#ff9800" stroke="#0c0d10" stroke-width="1.5"/>
    <text x="616" y="364" fill="#e7e9ee" font-size="12.5" font-weight="600">Oil &amp; Gas</text>
  </g>

  <!-- Banks: drifting deeper into Lagging -->
  <g>
    <polyline points="346,344 322,372 304,398 292,422" fill="none" stroke="#f44336" stroke-width="2" stroke-opacity="0.55"/>
    <circle cx="346" cy="344" r="2.5" fill="#f44336" fill-opacity="0.35"/>
    <circle cx="322" cy="372" r="3.4" fill="#f44336" fill-opacity="0.5"/>
    <circle cx="304" cy="398" r="4.2" fill="#f44336" fill-opacity="0.7"/>
    <polygon points="-7,-4 7,0 -7,4" fill="#f44336" transform="translate(298,410) rotate(116.6)"/>
    <circle cx="292" cy="422" r="7.5" fill="#f44336" stroke="#0c0d10" stroke-width="1.5"/>
    <text x="306" y="430" fill="#e7e9ee" font-size="12.5" font-weight="600">Banks</text>
  </g>

  <!-- footer legend -->
  <text x="32" y="558" fill="#6f757f" font-size="11.5">Dot size = constituents · arrow = direction of travel (oldest → newest) · filter by name or current rank</text>
</svg>
